<svg width="40" height="40" viewBox="0 0 40 40" fill="none" xmlns="http://www.w3.org/2000/svg">
<path fill-rule="evenodd" clip-rule="evenodd" d="M20 40C8.954 40 0 31.046 0 20C0 8.954 8.954 0 20 0C31.046 0 40 8.954 40 20C40 31.046 31.046 40 20 40ZM20 37.6C24.6678 37.6 29.1444 35.7457 32.4451 32.4451C35.7457 29.1444 37.6 24.6678 37.6 20C37.6 15.3322 35.7457 10.8556 32.4451 7.55492C29.1444 4.25428 24.6678 2.4 20 2.4C15.3322 2.4 10.8556 4.25428 7.55492 7.55492C4.25428 10.8556 2.4 15.3322 2.4 20C2.4 24.6678 4.25428 29.1444 7.55492 32.4451C10.8556 35.7457 15.3322 37.6 20 37.6ZM18.68 8.862H21.32L21.142 22.982H18.86L18.684 8.862H18.68ZM20 30.146C19.7799 30.1487 19.5616 30.1073 19.3578 30.0243C19.1539 29.9414 18.9688 29.8185 18.8131 29.6628C18.6575 29.5072 18.5346 29.3221 18.4517 29.1182C18.3687 28.9144 18.3273 28.6961 18.33 28.476C18.3259 28.2556 18.3663 28.0366 18.4488 27.8321C18.5313 27.6277 18.6542 27.442 18.8101 27.2861C18.966 27.1302 19.1517 27.0073 19.3561 26.9248C19.5606 26.8423 19.7796 26.8019 20 26.806C20.952 26.806 21.67 27.526 21.67 28.476C21.6741 28.6964 21.6337 28.9154 21.5512 29.1199C21.4687 29.3243 21.3458 29.51 21.1899 29.6659C21.034 29.8218 20.8483 29.9447 20.6439 30.0272C20.4394 30.1097 20.2204 30.1501 20 30.146Z" fill="white"/>
</svg>
