<svg width="28" height="28" viewBox="0 0 28 28" fill="none" xmlns="http://www.w3.org/2000/svg">
<g clip-path="url(#clip0_1_428)">
<path d="M-0.00634766 22.4437V17.3688C-0.00634766 16.668 0.561644 16.1001 1.26236 16.1001C1.96307 16.1001 2.53106 16.668 2.53106 17.3688V22.4437C2.53106 22.7802 2.66483 23.1029 2.90277 23.3409C3.14071 23.5788 3.46342 23.7126 3.79992 23.7126H24.0999C24.4364 23.7126 24.7592 23.5788 24.9971 23.3409C25.235 23.1029 25.3687 22.7802 25.3687 22.4437V17.3688C25.3687 16.668 25.9368 16.1001 26.6375 16.1001C27.3382 16.1001 27.9062 16.6681 27.9062 17.3688V22.4437C27.9062 23.4532 27.5052 24.4214 26.7914 25.1352C26.0776 25.849 25.1094 26.25 24.0999 26.25H3.79992C2.79043 26.25 1.82228 25.849 1.10847 25.1352C0.394659 24.4214 -0.00634766 23.4532 -0.00634766 22.4437ZM12.6812 2.14371C12.6812 1.44301 13.2492 0.875027 13.9499 0.875C14.6506 0.875 15.2187 1.44299 15.2187 2.14371V14.3056L19.3965 10.1278C19.892 9.63235 20.6954 9.63234 21.1908 10.1278C21.6863 10.6233 21.6863 11.4266 21.1908 11.9221L14.847 18.2659C14.3515 18.7614 13.5482 18.7614 13.0527 18.2659L6.70903 11.9221C6.21355 11.4266 6.21355 10.6233 6.70903 10.1278C7.20452 9.63236 8.00787 9.63233 8.50333 10.1278L12.6812 14.3056V2.14371Z" fill="#1CCB5B"/>
</g>
<defs>
<clipPath id="clip0_1_428">
<rect width="28" height="28" fill="white"/>
</clipPath>
</defs>
</svg>
