<svg width="44" height="44" viewBox="0 0 44 44" fill="none" xmlns="http://www.w3.org/2000/svg">
<g clip-path="url(#clip0_1_162)">
<path d="M22 0C9.84981 0 0 9.84981 0 22C0 34.1509 9.84981 44 22 44C34.1509 44 44 34.1509 44 22C44 9.84981 34.1509 0 22 0ZM22 41.2933C11.3857 41.2933 2.75 32.6143 2.75 21.9999C2.75 11.3856 11.3857 2.74991 22 2.74991C32.6143 2.74991 41.25 11.3856 41.25 21.9999C41.25 32.6142 32.6143 41.2933 22 41.2933ZM29.7777 14.2223C29.2407 13.6854 28.3704 13.6854 27.8334 14.2223L22 20.0557L16.1666 14.2223C15.6296 13.6854 14.7593 13.6854 14.2216 14.2223C13.6847 14.7593 13.6847 15.6296 14.2216 16.1666L20.0551 22L14.2216 27.8334C13.6847 28.3697 13.6847 29.2415 14.2216 29.7777C14.7586 30.3147 15.6289 30.3147 16.1666 29.7777L22 23.9443L27.8334 29.7777C28.3704 30.3147 29.2407 30.3147 29.7777 29.7777C30.3146 29.2415 30.3146 28.3697 29.7777 27.8334L23.9443 22L29.7777 16.1666C30.3153 15.6289 30.3153 14.7586 29.7777 14.2223Z" fill="#F1F1F1"/>
</g>
<defs>
<clipPath id="clip0_1_162">
<rect width="44" height="44" fill="white"/>
</clipPath>
</defs>
</svg>
