<svg width="197" height="48" viewBox="0 0 197 48" fill="none" xmlns="http://www.w3.org/2000/svg">
<path d="M22 3.33301C32.6771 3.33318 41.3328 11.9889 41.333 22.666C41.333 25.1601 40.86 27.5435 40 29.7324C38.2931 28.4867 36.191 27.75 33.916 27.75C28.2092 27.7501 23.583 32.3762 23.583 38.083C23.583 39.4173 23.8384 40.6915 24.2988 41.8623C23.5449 41.9516 22.7779 41.999 22 41.999C11.3227 41.999 2.66699 33.3433 2.66699 22.666C2.66717 11.9888 11.3228 3.33301 22 3.33301ZM22 18C19.4229 18 17.3333 20.0889 17.333 22.666C17.333 25.2433 19.4227 27.333 22 27.333C24.5772 27.3329 26.666 25.2432 26.666 22.666C26.6658 20.089 24.577 18.0002 22 18ZM23 14.5518V13.542C22.3787 13.542 21.875 14.0457 21.875 14.667C21.8752 15.2878 22.3782 15.7906 22.999 15.791C23.0083 15.7913 23.0265 15.7924 23.0527 15.7939C23.1068 15.7971 23.1955 15.8044 23.3115 15.8193C23.5443 15.8492 23.8861 15.9106 24.292 16.0361C25.103 16.2869 26.1596 16.7893 27.1299 17.8027C28.0051 18.7169 28.4421 19.7035 28.6611 20.4629C28.7706 20.8424 28.8245 21.1614 28.8506 21.3779C28.8635 21.4855 28.8693 21.5671 28.8721 21.6172C28.8735 21.6422 28.8748 21.6596 28.875 21.668V21.6953C28.8904 22.3032 29.3884 22.791 30 22.791C30.6211 22.7908 31.125 22.2872 31.125 21.666H30C31.1246 21.666 31.125 21.6655 31.125 21.665V21.6572C31.125 21.6536 31.1241 21.6494 31.124 21.6445C31.1239 21.6347 31.1244 21.622 31.124 21.6074C31.1232 21.5784 31.1217 21.5401 31.1191 21.4932C31.1139 21.3986 31.1031 21.2685 31.084 21.1094C31.0457 20.7914 30.971 20.3521 30.8232 19.8398C30.5279 18.8158 29.9367 17.4815 28.7549 16.2471C27.4672 14.9022 26.0518 14.2255 24.9561 13.8867C24.409 13.7176 23.9387 13.6317 23.5977 13.5879C23.4268 13.566 23.2871 13.5539 23.1855 13.5479C23.135 13.5449 23.0937 13.5439 23.0625 13.543C23.047 13.5425 23.0339 13.5421 23.0234 13.542H23.001C23.0005 13.5468 23 13.6141 23 14.5518ZM23 9.88477V8.875C22.3787 8.875 21.875 9.37872 21.875 10C21.875 10.5822 22.3169 11.0611 22.8838 11.1191L22.999 11.125H22.9971C23.0004 11.125 23.0076 11.1257 23.0186 11.126C23.041 11.1266 23.0793 11.1278 23.1318 11.1309C23.2373 11.1371 23.4006 11.1497 23.6113 11.1768C24.0337 11.231 24.6441 11.3415 25.3652 11.5645C26.8061 12.01 28.6792 12.9018 30.3955 14.6943C31.9505 16.3185 32.7273 18.0722 33.1162 19.4209C33.3106 20.0949 33.4068 20.6635 33.4541 21.0566C33.4777 21.2529 33.4887 21.405 33.4941 21.5029C33.4968 21.5515 33.4985 21.5866 33.499 21.6074C33.4993 21.6178 33.5 21.625 33.5 21.6279V21.6543C33.5156 22.2619 34.0128 22.7497 34.624 22.75C35.2453 22.75 35.749 22.2463 35.749 21.625H34.624C35.6653 21.625 35.7433 21.6245 35.749 21.624V21.5986C35.7489 21.5858 35.7486 21.5685 35.748 21.5479C35.7469 21.5063 35.7452 21.449 35.7412 21.3779C35.7333 21.2356 35.7182 21.0356 35.6885 20.7881C35.629 20.2935 35.511 19.6038 35.2783 18.7969C34.813 17.1836 33.8819 15.0828 32.0205 13.1387C29.987 11.0148 27.7559 9.94868 26.0303 9.41504C25.1682 9.14847 24.4292 9.01348 23.8984 8.94531C23.6328 8.9112 23.4176 8.89382 23.2646 8.88477C23.1885 8.88026 23.1275 8.87822 23.083 8.87695C23.0607 8.87632 23.0422 8.87519 23.0283 8.875H23.001C23.0005 8.87543 23 8.89632 23 9.88477Z" fill="#F1F1F1"/>
<path d="M33.8326 29.9998C38.2508 29.9998 41.8326 33.5816 41.8326 37.9998C41.8325 42.4179 38.2508 45.9998 33.8326 45.9998C29.4145 45.9997 25.8328 42.4178 25.8326 37.9998C25.8326 33.5816 29.4145 29.9998 33.8326 29.9998ZM33.8326 33.5828C33.1884 33.5829 32.6666 34.1055 32.6666 34.7498V39.0339L32.3678 38.8298C31.8366 38.4653 31.1103 38.6004 30.7457 39.1316C30.3815 39.6628 30.5164 40.3892 31.0475 40.7537L33.1725 42.2117C33.5702 42.4846 34.0951 42.4845 34.4928 42.2117L36.6178 40.7537C37.149 40.3891 37.284 39.6628 36.9196 39.1316C36.555 38.6004 35.8287 38.4653 35.2975 38.8298L34.9996 39.0339V34.7498C34.9996 34.1054 34.477 33.5828 33.8326 33.5828Z" fill="#1CCB5B"/>
<path d="M62.1784 33.7137C60.5671 33.7137 59.0692 33.4239 57.6849 32.8443C56.3232 32.2647 55.1431 31.4622 54.1446 30.4368C53.1688 29.3891 52.4539 28.1742 52 26.7921L55.8467 25.1536C56.4594 26.5803 57.3445 27.706 58.5019 28.5308C59.6593 29.3333 60.9642 29.7346 62.4166 29.7346C63.2336 29.7346 63.9372 29.612 64.5272 29.3668C65.1399 29.0993 65.6052 28.7426 65.9229 28.2968C66.2633 27.8509 66.4335 27.3159 66.4335 26.6917C66.4335 25.9561 66.2066 25.3542 65.7527 24.8861C65.3215 24.3957 64.6634 24.0167 63.7783 23.7492L58.9104 22.2111C56.936 21.6092 55.4495 20.7064 54.451 19.5026C53.4524 18.2989 52.9532 16.8833 52.9532 15.256C52.9532 13.8293 53.3049 12.5698 54.0084 11.4775C54.7347 10.3852 55.7332 9.53814 57.0041 8.93626C58.2976 8.31209 59.7728 8 61.4294 8C62.95 8 64.3456 8.2675 65.6165 8.80251C66.8874 9.31522 67.9767 10.0397 68.8845 10.976C69.815 11.8899 70.5071 12.9711 70.961 14.2194L67.1484 15.8913C66.6491 14.643 65.9002 13.6844 64.9017 13.0157C63.9031 12.3246 62.7457 11.9791 61.4294 11.9791C60.6578 11.9791 59.977 12.1129 59.387 12.3804C58.7969 12.6256 58.3317 12.9822 57.9913 13.4504C57.6736 13.8962 57.5147 14.4312 57.5147 15.0554C57.5147 15.7464 57.7416 16.3595 58.1955 16.8945C58.6494 17.4072 59.3416 17.8084 60.272 18.0982L64.9357 19.536C66.9555 20.1825 68.4646 21.0742 69.4632 22.2111C70.4844 23.348 70.995 24.7523 70.995 26.4242C70.995 27.8509 70.6206 29.1104 69.8717 30.2027C69.1228 31.295 68.0902 32.1533 66.7739 32.7774C65.4577 33.4016 63.9258 33.7137 62.1784 33.7137Z" fill="#F1F1F1"/>
<path d="M72.7468 40V15.1223H76.9339V18.7335L76.5254 17.8307C77.1609 16.8499 78.0233 16.092 79.1126 15.5569C80.2019 14.9997 81.4614 14.721 82.8912 14.721C84.6386 14.721 86.2159 15.1445 87.6229 15.9916C89.0299 16.8387 90.142 17.9756 90.9589 19.4023C91.7986 20.829 92.2185 22.434 92.2185 24.2173C92.2185 25.9784 91.81 27.5834 90.993 29.0324C90.176 30.4814 89.064 31.6294 87.6569 32.4765C86.2499 33.3013 84.65 33.7137 82.8571 33.7137C81.5182 33.7137 80.2813 33.4573 79.1466 32.9446C78.0346 32.4096 77.1495 31.6517 76.4914 30.6708L77.2063 29.8015V40H72.7468ZM82.3465 29.7011C83.3677 29.7011 84.2755 29.4671 85.0698 28.999C85.8641 28.5308 86.4768 27.8844 86.908 27.0596C87.3619 26.2348 87.5889 25.2874 87.5889 24.2173C87.5889 23.1473 87.3619 22.2111 86.908 21.4086C86.4768 20.5838 85.8641 19.9373 85.0698 19.4692C84.2755 18.9788 83.3677 18.7335 82.3465 18.7335C81.3706 18.7335 80.4856 18.9676 79.6913 19.4357C78.9197 19.9039 78.3069 20.5615 77.853 21.4086C77.4219 22.2334 77.2063 23.1696 77.2063 24.2173C77.2063 25.2874 77.4219 26.2348 77.853 27.0596C78.3069 27.8844 78.9197 28.5308 79.6913 28.999C80.4856 29.4671 81.3706 29.7011 82.3465 29.7011Z" fill="#F1F1F1"/>
<path d="M102.631 33.7137C100.815 33.7137 99.1586 33.3013 97.6608 32.4765C96.1857 31.6517 95.0056 30.5259 94.1205 29.0993C93.2582 27.6726 92.827 26.0453 92.827 24.2173C92.827 22.3894 93.2582 20.7621 94.1205 19.3354C95.0056 17.9087 96.1857 16.783 97.6608 15.9582C99.136 15.1334 100.793 14.721 102.631 14.721C104.446 14.721 106.092 15.1334 107.567 15.9582C109.042 16.783 110.211 17.9087 111.073 19.3354C111.958 20.7398 112.401 22.3671 112.401 24.2173C112.401 26.0453 111.958 27.6726 111.073 29.0993C110.188 30.5259 109.008 31.6517 107.533 32.4765C106.058 33.3013 104.424 33.7137 102.631 33.7137ZM102.631 29.7011C103.629 29.7011 104.503 29.4671 105.252 28.999C106.024 28.5308 106.625 27.8844 107.056 27.0596C107.51 26.2125 107.737 25.2651 107.737 24.2173C107.737 23.1473 107.51 22.2111 107.056 21.4086C106.625 20.5838 106.024 19.9373 105.252 19.4692C104.503 18.9788 103.629 18.7335 102.631 18.7335C101.61 18.7335 100.713 18.9788 99.9416 19.4692C99.17 19.9373 98.5573 20.5838 98.1034 21.4086C97.6722 22.2111 97.4566 23.1473 97.4566 24.2173C97.4566 25.2651 97.6722 26.2125 98.1034 27.0596C98.5573 27.8844 99.17 28.5308 99.9416 28.999C100.713 29.4671 101.61 29.7011 102.631 29.7011Z" fill="#F1F1F1"/>
<path d="M121.85 33.5131C119.762 33.5131 118.139 32.9558 116.982 31.8412C115.847 30.7043 115.28 29.1104 115.28 27.0596V19.0345H112.08V15.1223H112.42C113.328 15.1223 114.032 14.8882 114.531 14.4201C115.03 13.9519 115.28 13.272 115.28 12.3804V10.976H119.739V15.1223H123.994V19.0345H119.739V26.8255C119.739 27.4274 119.841 27.9401 120.046 28.3636C120.273 28.7872 120.613 29.1104 121.067 29.3333C121.543 29.5563 122.145 29.6677 122.871 29.6677C123.03 29.6677 123.211 29.6566 123.416 29.6343C123.643 29.612 123.858 29.5897 124.063 29.5674V33.3124C123.745 33.357 123.382 33.4016 122.973 33.4462C122.565 33.4908 122.19 33.5131 121.85 33.5131Z" fill="#F1F1F1"/>
<path d="M134.857 33.7137C133.245 33.7137 131.747 33.4239 130.363 32.8443C129.001 32.2647 127.821 31.4622 126.823 30.4368C125.847 29.3891 125.132 28.1742 124.678 26.7921L128.525 25.1536C129.138 26.5803 130.023 27.706 131.18 28.5308C132.337 29.3333 133.642 29.7346 135.095 29.7346C135.912 29.7346 136.615 29.612 137.205 29.3668C137.818 29.0993 138.283 28.7426 138.601 28.2968C138.941 27.8509 139.112 27.3159 139.112 26.6917C139.112 25.9561 138.885 25.3542 138.431 24.8861C138 24.3957 137.342 24.0167 136.456 23.7492L131.589 22.2111C129.614 21.6092 128.128 20.7064 127.129 19.5026C126.131 18.2989 125.631 16.8833 125.631 15.256C125.631 13.8293 125.983 12.5698 126.687 11.4775C127.413 10.3852 128.411 9.53814 129.682 8.93626C130.976 8.31209 132.451 8 134.108 8C135.628 8 137.024 8.2675 138.295 8.80251C139.566 9.31522 140.655 10.0397 141.563 10.976C142.493 11.8899 143.185 12.9711 143.639 14.2194L139.827 15.8913C139.327 14.643 138.578 13.6844 137.58 13.0157C136.581 12.3246 135.424 11.9791 134.108 11.9791C133.336 11.9791 132.655 12.1129 132.065 12.3804C131.475 12.6256 131.01 12.9822 130.669 13.4504C130.352 13.8962 130.193 14.4312 130.193 15.0554C130.193 15.7464 130.42 16.3595 130.874 16.8945C131.328 17.4072 132.02 17.8084 132.95 18.0982L137.614 19.536C139.634 20.1825 141.143 21.0742 142.141 22.2111C143.163 23.348 143.673 24.7523 143.673 26.4242C143.673 27.8509 143.299 29.1104 142.55 30.2027C141.801 31.295 140.768 32.1533 139.452 32.7774C138.136 33.4016 136.604 33.7137 134.857 33.7137Z" fill="#F1F1F1"/>
<path d="M150.876 33.7137C149.582 33.7137 148.459 33.5019 147.506 33.0784C146.552 32.6548 145.815 32.0529 145.293 31.2727C144.771 30.4702 144.51 29.5451 144.51 28.4974C144.51 27.4943 144.737 26.6026 145.191 25.8224C145.645 25.0199 146.348 24.3511 147.301 23.8161C148.254 23.2811 149.457 22.9021 150.91 22.6792L156.969 21.7095V25.0533L151.761 25.9227C150.876 26.0787 150.218 26.3574 149.786 26.7586C149.355 27.1599 149.14 27.6837 149.14 28.3302C149.14 28.9544 149.378 29.4559 149.854 29.8349C150.354 30.1916 150.966 30.3699 151.693 30.3699C152.623 30.3699 153.44 30.1804 154.144 29.8015C154.87 29.4002 155.426 28.8541 155.812 28.163C156.22 27.472 156.424 26.714 156.424 25.8892V21.2079C156.424 20.4277 156.107 19.7813 155.471 19.2685C154.858 18.7335 154.041 18.466 153.02 18.466C152.067 18.466 151.216 18.7224 150.467 19.2351C149.741 19.7255 149.208 20.3831 148.867 21.2079L145.225 19.4692C145.588 18.5106 146.155 17.6858 146.927 16.9948C147.721 16.2814 148.652 15.7241 149.718 15.3229C150.785 14.9216 151.942 14.721 153.19 14.721C154.711 14.721 156.05 14.9997 157.207 15.5569C158.365 16.092 159.261 16.8499 159.897 17.8307C160.555 18.7893 160.884 19.915 160.884 21.2079V33.3124H156.663V30.2027L157.616 30.1358C157.139 30.9161 156.572 31.5737 155.914 32.1087C155.256 32.6214 154.507 33.0226 153.667 33.3124C152.827 33.5799 151.897 33.7137 150.876 33.7137Z" fill="#F1F1F1"/>
<path d="M168.213 33.3124L160.928 15.1223H165.796L171.073 29.4336H169.269L174.579 15.1223H179.447L172.162 33.3124H168.213Z" fill="#F1F1F1"/>
<path d="M188.319 33.7137C186.413 33.7137 184.745 33.2901 183.315 32.4431C181.886 31.596 180.774 30.4479 179.979 28.999C179.185 27.55 178.788 25.945 178.788 24.1839C178.788 22.356 179.185 20.7398 179.979 19.3354C180.796 17.9087 181.897 16.783 183.281 15.9582C184.688 15.1334 186.254 14.721 187.979 14.721C189.431 14.721 190.702 14.9551 191.792 15.4232C192.904 15.8913 193.846 16.5378 194.617 17.3626C195.389 18.1874 195.979 19.1348 196.387 20.2048C196.796 21.2525 197 22.3894 197 23.6155C197 23.9276 196.977 24.2508 196.932 24.5852C196.909 24.9195 196.852 25.2093 196.762 25.4545H182.464V22.1108H194.243L192.132 23.6823C192.336 22.6569 192.28 21.7429 191.962 20.9404C191.667 20.1379 191.168 19.5026 190.464 19.0345C189.783 18.5664 188.955 18.3323 187.979 18.3323C187.049 18.3323 186.22 18.5664 185.494 19.0345C184.768 19.4803 184.212 20.1491 183.826 21.0408C183.463 21.9101 183.327 22.969 183.418 24.2173C183.327 25.3319 183.474 26.3239 183.86 27.1933C184.269 28.0404 184.859 28.698 185.63 29.1661C186.424 29.6343 187.332 29.8683 188.354 29.8683C189.375 29.8683 190.237 29.6566 190.941 29.233C191.667 28.8095 192.234 28.241 192.643 27.5277L196.251 29.2665C195.888 30.1358 195.321 30.9049 194.549 31.5737C193.777 32.2424 192.858 32.7663 191.792 33.1452C190.748 33.5242 189.59 33.7137 188.319 33.7137Z" fill="#F1F1F1"/>
</svg>
